<?xml version="1.0" encoding="utf-8"?>
<!-- Generator: Adobe Illustrator 21.1.0, SVG Export Plug-In . SVG Version: 6.00 Build 0)  -->
<svg version="1.1" id="Layer_1" xmlns="http://www.w3.org/2000/svg" xmlns:xlink="http://www.w3.org/1999/xlink" x="0px" y="0px"
	 width="399.6px" height="76.2px" viewBox="0 0 399.6 76.2" style="enable-background:new 0 0 399.6 76.2;" xml:space="preserve">
<style type="text/css">
	.st0{fill:#404041;}
	.st1{fill:#CF232A;}
</style>
<g>
	<g>
		<path class="st0" d="M192.8,25.5H191V1.4h1.8V25.5z"/>
		<path class="st0" d="M220.2,1.4v24.1h-0.8c-0.1,0-0.3,0-0.4-0.1s-0.2-0.1-0.3-0.3L203.1,4.3c0,0.3,0.1,0.7,0.1,1v20.3h-1.5V1.4
			h0.9c0.2,0,0.3,0,0.4,0.1c0.1,0,0.2,0.1,0.3,0.3l15.6,20.9c0-0.3-0.1-0.7-0.1-1V1.4H220.2z"/>
		<path class="st0" d="M247.6,1.4v24.1h-0.8c-0.1,0-0.3,0-0.4-0.1s-0.2-0.1-0.3-0.3L230.5,4.3c0,0.3,0.1,0.7,0.1,1v20.3H229V1.4h0.9
			c0.2,0,0.3,0,0.4,0.1c0.1,0,0.2,0.1,0.3,0.3l15.6,20.9c0-0.3-0.1-0.7-0.1-1V1.4H247.6z"/>
		<path class="st0" d="M277.9,13.5c0,1.9-0.3,3.6-0.8,5.1c-0.6,1.5-1.3,2.8-2.4,3.9c-1,1.1-2.2,1.9-3.6,2.5c-1.4,0.6-3,0.9-4.7,0.9
			s-3.3-0.3-4.7-0.9c-1.4-0.6-2.6-1.4-3.6-2.5c-1-1.1-1.8-2.4-2.4-3.9c-0.6-1.5-0.8-3.2-0.8-5.1c0-1.9,0.3-3.5,0.8-5.1
			c0.6-1.5,1.3-2.8,2.4-3.9c1-1.1,2.2-1.9,3.6-2.5c1.4-0.6,3-0.9,4.7-0.9s3.3,0.3,4.7,0.9s2.6,1.4,3.6,2.5c1,1.1,1.8,2.4,2.4,3.9
			C277.6,9.9,277.9,11.6,277.9,13.5z M276,13.5c0-1.7-0.2-3.2-0.7-4.5c-0.5-1.3-1.1-2.5-2-3.4c-0.9-0.9-1.9-1.6-3.1-2.1
			c-1.2-0.5-2.5-0.7-4-0.7c-1.4,0-2.7,0.2-3.9,0.7s-2.2,1.2-3.1,2.1c-0.9,0.9-1.5,2.1-2,3.4c-0.5,1.3-0.7,2.9-0.7,4.5
			c0,1.7,0.2,3.2,0.7,4.5c0.5,1.3,1.1,2.5,2,3.4c0.9,0.9,1.9,1.6,3.1,2.1s2.5,0.7,3.9,0.7c1.4,0,2.8-0.2,4-0.7
			c1.2-0.5,2.2-1.2,3.1-2.1c0.9-0.9,1.5-2.1,2-3.4C275.8,16.7,276,15.2,276,13.5z"/>
		<path class="st0" d="M302.9,1.4L293,25.5h-1.6l-9.9-24.1h1.4c0.2,0,0.3,0,0.4,0.1c0.1,0.1,0.2,0.2,0.2,0.3l8.2,20
			c0.1,0.2,0.2,0.5,0.3,0.8c0.1,0.3,0.2,0.6,0.3,0.9c0.1-0.3,0.1-0.6,0.2-0.9c0.1-0.3,0.2-0.6,0.3-0.8l8.2-20c0-0.1,0.1-0.2,0.2-0.3
			c0.1-0.1,0.2-0.1,0.4-0.1H302.9z"/>
		<path class="st0" d="M325.2,25.5h-1.3c-0.2,0-0.3,0-0.4-0.1c-0.1-0.1-0.2-0.2-0.2-0.3l-2.8-7h-11.8l-2.8,7c0,0.1-0.1,0.2-0.2,0.3
			s-0.2,0.1-0.4,0.1h-1.3l9.9-24.1h1.7L325.2,25.5z M319.9,16.8L315,4.6c-0.2-0.4-0.3-0.9-0.5-1.4c-0.1,0.3-0.1,0.5-0.2,0.8
			c-0.1,0.2-0.2,0.5-0.3,0.7l-4.9,12.2H319.9z"/>
		<path class="st0" d="M344.2,2.9h-8.5v22.6H334V2.9h-8.5V1.4h18.7V2.9z"/>
		<path class="st0" d="M351.7,25.5H350V1.4h1.8V25.5z"/>
		<path class="st0" d="M378.9,1.4L369,25.5h-1.6l-9.9-24.1h1.4c0.2,0,0.3,0,0.4,0.1c0.1,0.1,0.2,0.2,0.2,0.3l8.2,20
			c0.1,0.2,0.2,0.5,0.3,0.8c0.1,0.3,0.2,0.6,0.3,0.9c0.1-0.3,0.1-0.6,0.2-0.9c0.1-0.3,0.2-0.6,0.3-0.8l8.2-20c0-0.1,0.1-0.2,0.2-0.3
			c0.1-0.1,0.2-0.1,0.4-0.1H378.9z"/>
		<path class="st0" d="M399.1,24.1l0,1.4h-14.4V1.4h14.4v1.4h-12.7v9.7h10.6V14h-10.6v10.1H399.1z"/>
		<path class="st0" d="M204.7,53v4.2H190V32.4h5.1V53H204.7z"/>
		<path class="st0" d="M215.3,57.2h-5.1V32.4h5.1V57.2z"/>
		<path class="st0" d="M228.1,36.5v6.8h8.9v4h-8.9v9.9h-5.1V32.4h15.7v4H228.1z"/>
		<path class="st0" d="M249.7,36.5v6.4h8.2v3.9h-8.2v6.5h10.6v4h-15.7V32.4h15.7v4H249.7z"/>
		<path class="st0" d="M279.9,37.2c-0.2,0.3-0.3,0.5-0.5,0.6c-0.2,0.1-0.4,0.2-0.6,0.2c-0.2,0-0.5-0.1-0.8-0.3
			c-0.3-0.2-0.6-0.4-1-0.6c-0.4-0.2-0.8-0.4-1.3-0.6c-0.5-0.2-1.1-0.3-1.8-0.3c-1.2,0-2.1,0.3-2.7,0.8c-0.6,0.5-0.9,1.2-0.9,2.1
			c0,0.5,0.2,1,0.5,1.4c0.3,0.4,0.8,0.7,1.3,0.9c0.5,0.3,1.1,0.5,1.8,0.7c0.7,0.2,1.4,0.4,2.1,0.7s1.4,0.5,2.1,0.9
			c0.7,0.3,1.3,0.7,1.8,1.2c0.5,0.5,1,1.1,1.3,1.8c0.3,0.7,0.5,1.6,0.5,2.6c0,1.1-0.2,2.2-0.6,3.2c-0.4,1-1,1.8-1.7,2.6
			c-0.7,0.7-1.7,1.3-2.7,1.7c-1.1,0.4-2.3,0.6-3.7,0.6c-0.8,0-1.6-0.1-2.3-0.2c-0.8-0.2-1.5-0.4-2.2-0.7c-0.7-0.3-1.4-0.6-2-1
			c-0.6-0.4-1.2-0.8-1.7-1.3l1.5-2.4c0.1-0.2,0.3-0.3,0.5-0.5c0.2-0.1,0.4-0.2,0.6-0.2c0.3,0,0.6,0.1,1,0.3c0.3,0.2,0.7,0.5,1.2,0.8
			c0.4,0.3,1,0.5,1.5,0.7c0.6,0.2,1.3,0.3,2.1,0.3c1.2,0,2.1-0.3,2.8-0.8c0.7-0.5,1-1.4,1-2.4c0-0.6-0.2-1.1-0.5-1.5
			c-0.3-0.4-0.7-0.7-1.3-1c-0.5-0.3-1.1-0.5-1.8-0.7s-1.4-0.4-2.1-0.6s-1.4-0.5-2.1-0.8c-0.7-0.3-1.3-0.7-1.8-1.3
			c-0.5-0.5-0.9-1.2-1.3-1.9c-0.3-0.8-0.5-1.7-0.5-2.9c0-0.9,0.2-1.8,0.5-2.7c0.4-0.9,0.9-1.6,1.6-2.3c0.7-0.7,1.6-1.2,2.6-1.6
			c1-0.4,2.2-0.6,3.5-0.6c1.5,0,2.9,0.2,4.1,0.7s2.3,1.1,3.2,1.9L279.9,37.2z"/>
		<path class="st0" d="M304.5,51.1c0.3,0,0.5,0.1,0.7,0.3l2,2.2c-1,1.3-2.2,2.2-3.7,2.9c-1.5,0.7-3.2,1-5.3,1c-1.9,0-3.5-0.3-5-0.9
			c-1.5-0.6-2.7-1.5-3.8-2.6c-1-1.1-1.8-2.5-2.4-4c-0.6-1.5-0.8-3.2-0.8-5.1c0-1.2,0.1-2.4,0.4-3.5c0.3-1.1,0.7-2.1,1.2-3.1
			c0.5-0.9,1.1-1.8,1.8-2.5c0.7-0.7,1.5-1.4,2.4-1.9c0.9-0.5,1.9-0.9,3-1.2s2.2-0.4,3.4-0.4c0.9,0,1.8,0.1,2.6,0.2
			c0.8,0.2,1.6,0.4,2.3,0.7c0.7,0.3,1.4,0.6,2,1c0.6,0.4,1.1,0.8,1.6,1.3l-1.7,2.4c-0.1,0.1-0.2,0.3-0.4,0.4
			c-0.2,0.1-0.4,0.2-0.6,0.2s-0.5-0.1-0.8-0.3c-0.3-0.2-0.6-0.4-1-0.6c-0.4-0.2-0.9-0.5-1.5-0.6c-0.6-0.2-1.4-0.3-2.3-0.3
			c-1,0-2,0.2-2.8,0.6s-1.6,0.9-2.2,1.6s-1.1,1.6-1.4,2.6c-0.3,1-0.5,2.2-0.5,3.5c0,1.3,0.2,2.5,0.6,3.6c0.4,1,0.9,1.9,1.5,2.6
			c0.6,0.7,1.4,1.3,2.2,1.6s1.8,0.6,2.8,0.6c0.6,0,1.1,0,1.6-0.1c0.5-0.1,0.9-0.2,1.3-0.3c0.4-0.1,0.8-0.3,1.1-0.5
			c0.4-0.2,0.7-0.5,1.1-0.8c0.1-0.1,0.3-0.2,0.4-0.3C304.2,51.1,304.4,51.1,304.5,51.1z"/>
		<path class="st0" d="M334.2,57.2h-4c-0.4,0-0.8-0.1-1.1-0.3c-0.3-0.2-0.5-0.5-0.6-0.8l-1.7-4.7H317l-1.7,4.7
			c-0.1,0.3-0.3,0.5-0.6,0.8c-0.3,0.2-0.6,0.3-1.1,0.3h-4l9.7-24.7h5.2L334.2,57.2z M325.6,47.8l-2.7-7.6c-0.2-0.4-0.3-0.9-0.5-1.4
			c-0.2-0.5-0.3-1.1-0.5-1.7c-0.2,0.6-0.3,1.2-0.5,1.8c-0.2,0.5-0.3,1-0.5,1.4l-2.7,7.5H325.6z"/>
		<path class="st0" d="M347.2,32.4c1.7,0,3.2,0.2,4.4,0.6c1.2,0.4,2.2,1,3,1.7c0.8,0.7,1.4,1.6,1.8,2.5c0.4,1,0.6,2,0.6,3.2
			c0,1.2-0.2,2.3-0.6,3.3c-0.4,1-1,1.9-1.8,2.6c-0.8,0.7-1.8,1.3-3,1.7c-1.2,0.4-2.7,0.6-4.3,0.6h-3.2v8.5h-5.1V32.4H347.2z
			 M347.2,44.8c1.6,0,2.8-0.4,3.5-1.2c0.7-0.8,1.1-1.8,1.1-3.2c0-0.6-0.1-1.2-0.3-1.7s-0.5-0.9-0.9-1.3c-0.4-0.4-0.9-0.6-1.4-0.8
			c-0.6-0.2-1.3-0.3-2.1-0.3h-3.2v8.4H347.2z"/>
		<path class="st0" d="M367.7,36.5v6.4h8.2v3.9h-8.2v6.5h10.6v4h-15.7V32.4h15.7v4H367.7z"/>
		<path class="st0" d="M397.9,37.2c-0.2,0.3-0.3,0.5-0.5,0.6c-0.2,0.1-0.4,0.2-0.6,0.2c-0.2,0-0.5-0.1-0.8-0.3
			c-0.3-0.2-0.6-0.4-1-0.6c-0.4-0.2-0.8-0.4-1.3-0.6c-0.5-0.2-1.1-0.3-1.8-0.3c-1.2,0-2.1,0.3-2.7,0.8c-0.6,0.5-0.9,1.2-0.9,2.1
			c0,0.5,0.2,1,0.5,1.4c0.3,0.4,0.8,0.7,1.3,0.9c0.5,0.3,1.1,0.5,1.8,0.7c0.7,0.2,1.4,0.4,2.1,0.7s1.4,0.5,2.1,0.9
			c0.7,0.3,1.3,0.7,1.8,1.2c0.5,0.5,1,1.1,1.3,1.8c0.3,0.7,0.5,1.6,0.5,2.6c0,1.1-0.2,2.2-0.6,3.2c-0.4,1-1,1.8-1.7,2.6
			c-0.7,0.7-1.7,1.3-2.7,1.7c-1.1,0.4-2.3,0.6-3.7,0.6c-0.8,0-1.6-0.1-2.3-0.2c-0.8-0.2-1.5-0.4-2.2-0.7c-0.7-0.3-1.4-0.6-2-1
			c-0.6-0.4-1.2-0.8-1.7-1.3l1.5-2.4c0.1-0.2,0.3-0.3,0.5-0.5c0.2-0.1,0.4-0.2,0.6-0.2c0.3,0,0.6,0.1,1,0.3c0.3,0.2,0.7,0.5,1.2,0.8
			c0.4,0.3,1,0.5,1.5,0.7c0.6,0.2,1.3,0.3,2.1,0.3c1.2,0,2.1-0.3,2.8-0.8c0.7-0.5,1-1.4,1-2.4c0-0.6-0.2-1.1-0.5-1.5
			c-0.3-0.4-0.7-0.7-1.3-1c-0.5-0.3-1.1-0.5-1.8-0.7s-1.4-0.4-2.1-0.6s-1.4-0.5-2.1-0.8c-0.7-0.3-1.3-0.7-1.8-1.3
			c-0.5-0.5-0.9-1.2-1.3-1.9c-0.3-0.8-0.5-1.7-0.5-2.9c0-0.9,0.2-1.8,0.5-2.7c0.4-0.9,0.9-1.6,1.6-2.3c0.7-0.7,1.6-1.2,2.6-1.6
			c1-0.4,2.2-0.6,3.5-0.6c1.5,0,2.9,0.2,4.1,0.7s2.3,1.1,3.2,1.9L397.9,37.2z"/>
	</g>
	<g>
		<path class="st1" d="M50.8,53.9v-4.7h4.5v4.7H50.8z M56.3,53.9h4.5v-4.7h-4.5V53.9z M56.3,54.9v4.7h4.5v-4.7H56.3z M55.3,54.9
			h-4.5v4.7h4.5V54.9z M60.7,47.9c0-2.7-2.2-5-5-5c-2.7,0-5,2.2-5,5H60.7z"/>
		<path class="st1" d="M157.5,72.8c-8.4-1.7-7.5,0.3-15.7-0.3c-3.4-0.3-6.4-1.4-9.8-2c-0.3-0.3-0.8,0.3-1.1,0c-2.2-1.4-5,0-7.3-1.4
			c-2.8-1.4-6.2,0.6-8.4-1.7c-0.8-0.6-1.1-2-2-2c-3.4-0.6-9.6,0.3-11.9-2.8c-1.7-2-1.1-4.8-0.3-7.3c0.3-1.1,0.6-2.2,1.1-3.7
			c0-0.6,3.7-0.3,4.6-0.3c-0.6,0.3-0.3,0.8-0.3,1.1c1.7,0,3.6-0.6,4.8,0.3c1.4,0.8-0.3,3.6,1.4,3.9c3.4,0.8,7-1.7,9.8-0.3
			c2,0.8,3.6,4.2,5.3,2.8c0.8-0.6,2.2,0,2.5-1.4c6.7,0.3,13.2-1.7,19.9-1.1c-0.3,0.3,0.6,0.6,0.3,0.8c1.7,0,3.1,0.3,4.5-0.8
			c1.1-0.8,2.8-0.6,3.4,0.3c0.8,0.6,1.7,0.8,2.5,0.6c0.6-0.3,0.6-0.8,0.6-1.4c0.3-0.8,1.1-0.8,2-1.1c0.3-0.3,0.6-0.8,0.8-1.1
			c1.1-0.8,2.5,0,3.9-0.6c1.4-0.6,2.8-0.8,4.2-1.7c0.3,0,0.3-1.7,0-1.7c-1.1-0.6-3.1,0.3-3.6-0.6c-0.6-0.6-0.3-2-0.3-3.1
			c-2.5,0.3-5,0-6.4-1.7c-1.1-1.1,0.6-3.1,1.4-4.8h0.8c0.6-0.8,0.3-2-0.3-2c-2-0.3-4.8-0.8-3.9-3.4c-1.7,0.3-4.8-0.8-5,1.7
			c-2.2,0-5,0.8-6.2-0.6c-1.4-1.7,0.6-3.9,2.5-5.6c0.6-0.3,0.3-2-0.3-3.1c-0.8-1.1,0.3-3.4-0.8-4.8c-0.8-0.6-2.2,0-3.1-0.6
			c-1.4-1.4-2.2-3.4-3.4-4.8c-1.1-1.1-3.6,0.6-5.3-0.3c-0.3,0,0.3-1.1,0-1.7c-0.8-0.8-2.2,0-3.4-0.3c-0.6-0.6-1.1-1.4-1.1-2.2
			c-0.6,0-0.8-0.3-1.4,0.3c-1.7,1.4-3.9,0.6-5.6,2c-1.4,0.8-2.2,1.7-3.9,1.4c0,0.8,0.3,2,0,2.2c-1.1,0.8-2.8,0.6-3.6-0.6
			c-1.1-1.1,0-2.8-0.3-4.5c0-0.3,0.8-0.6,0.8-0.6c1.1-2.2-0.8-2.8-2.5-4.2c-0.3,0,0.3-1.1,0-1.7c-0.8-1.1-2.5-1.4-3.9-1.1V4.8
			c-1.7-0.6-2.8,0.8-4.5,1.1c-4.2,0.8-8.4-0.3-12.6,0.6c-0.3,0.3-0.6,0.8-0.8,0.8c-0.8,0.8-2.2,0.3-3.1-0.3c-0.6-0.6-0.3-1.7-0.8-2
			c-1.1-1.1-2.8,1.7-4.5,0.3c-0.3-0.6-0.3-1.4-0.8-1.7c-0.8-0.3-2.2,0.3-2.8-0.3c-0.6-0.8,0-2.2-0.6-2.5c-1.4-0.6-3.1-0.3-4.5-0.3
			C78.8,0,78,0.6,78,0c-2.8,0.3-5.6-0.6-8.4,1.1C68.1,2,68.1,5.1,67,6c-0.6,0.6-2.2-1.2-3.4-0.6c-1.1,0.9-2,1.7-3.6,1.1
			c-0.6-0.3,0-1.7-0.3-1.7c-2-0.8-2.5,1.4-2.8,3.1c-0.3,0.3-0.8,0.6-1.1,0.8c-0.3,1.4,0.6,3.4-0.3,3.9c-0.8,0.8-3.4,0.6-3.9-0.6
			c-0.6-1.1-0.3-2.5-0.3-3.9c-2,0.3-4.2,1.1-5.6,2.5c-0.3,0.6-2,0-2,0.3c-0.8,2,1.8,3.6,1.2,5.5c-0.3,1.4-3.7,2-4.8,2.6
			c-2.2,1.7-4.5,3.1-7,4.8c-1.1,0.8,0.3,2.8,0,4.2c-0.3,0.6-0.8,0-1.1,0.3c-0.3,0.8,0.8,2.7,0.6,3.5c-1.4,2.2-2.4,2.1-4.1,1
			c-1.1-0.6-2.2-1.4-3.6-1.1v0.8c-1.7,0.6-2-0.8-3.1-1.7c-0.8-0.8-2.5-0.6-3.6,0.6c-0.6,0.8-1.1,0.8-2.2,0.8c-0.3,0-0.3,0.6-0.3,0.8
			c-1.1,0.3-2,0.8-2.5,1.4c-0.3,0.6,0,1.4,0,2.2c2-0.3,4.2,0,5.3,0.8c1.4,0.8-0.8,2.5-2.5,2.8c-1.1,0-0.6,1.4-0.8,2.5h-0.8
			c-0.3,0.6,0,1.4,0,1.4c-2.2,0.6-4.2,0-6.4,0.6c-0.8,0-2,0.8-2,1.7C4.9,49,2.1,49.3,0.2,49c0,1.1-0.6,2.8,0.3,3.1
			c1.1,0.6,2.8,0,4.2,0.6v1.4c2.5,0,5-0.3,7.6,0.8v0.6c1.1,0,3.6,0.6,3.6-1.4l3.4,1.2c0-1.1-0.3-2.8,0.8-3.1c2-0.6,3.4-1.4,5-1.1
			c-0.6,1.1-0.6,2.5,0.3,3.1c0.8,0.6,3,0.8,4,0.1c-0.3-0.8,2.4-1.2,3.6-1l22.8-27.7c5.6,5.6,15.9,16.1,18,18.7
			c2.8,3.5,5.9,4.1,6.3,11.4l0.4,4.4c0.2,0.7-0.7,1.8-1.1,2.7c-1.4,2.2,1.1,3.6,1.9,5.3c0.8,1.7,0.6,3-1.4,3.3
			c-3.6,0.8-4.2,1.7-7.8,2.5c-2,0.3-6.4-1.1-8.4-0.6c-1.7,0.6-5.3,0.8-10.6,0.8c-0.4,0-7.1-0.1-13.7,0c-6.4,0.3-9.7,0.7-11.3,0.5
			c-6.7-0.6-10.3,0.7-17.2,0.8c-6.4,0.1-9.2,0.7-7,0.6c2.2-0.1,21.7,0.6,31.8-0.2c10.1-0.8,45.1-0.5,51.3-0.5c6.2,0,42.9-2,47.3-0.6
			c4.5,1.4,8.7,0.6,10.6,0.3l26.1-0.3C166.5,72.8,161.7,73.6,157.5,72.8z M56.4,25.6l7.8,0.9c0.2,0.3,0.4,0.6,0.5,0.9
			c0.2,0.1-0.5,0.7-0.5,1.1c0.2,1,1.3,1.6,2.3,1.8L66.2,31c0.9,0.8,2.1,0.2,3.3,0.5c3,0.6-1.1,2.5,1.9,3.1c0.3-0.1,0.6-0.4,0.8-0.3
			c0.8-0.3,1.5,0.4,1.9,1c0.2,0.5,2.2,3.2,2.5,3.6c0.3,0.7-1.3,1.6-1.9,2.6L56.4,25.6z"/>
	</g>
	<g>
		<g>
			<path class="st1" d="M189.9,73.4v-9.3h3.1c1.3,0,2.5,0.3,3.5,1c1,0.7,1.7,2,1.7,3.6c0,1.6-0.6,2.9-1.7,3.6
				c-1,0.7-2.2,1.1-3.5,1.1H189.9z M191.9,65.9v5.7h0.8c2.3,0,3.5-1,3.5-2.9c0-1.8-1.2-2.8-3.5-2.8H191.9z"/>
			<path class="st1" d="M203,73.4v-9.3h6.9v1.8H205v1.8h4.7v1.8H205v2h4.9v1.8H203z"/>
			<path class="st1" d="M217.8,69.5c-1.8-0.3-2.9-1.2-2.9-2.8c0-0.9,0.3-1.5,1-2c0.7-0.5,1.5-0.8,2.4-0.8c1.4,0,2.6,0.5,3.6,1.5
				l-1.3,1.4c-0.7-0.7-1.5-1.1-2.4-1.1c-0.8,0-1.4,0.4-1.4,0.9c0,0.5,0.4,0.8,1.3,1l0.9,0.1c2.1,0.3,3.1,1.3,3.1,2.9
				c0,0.8-0.3,1.5-1,2.1c-0.7,0.5-1.6,0.8-2.7,0.8c-1.6,0-3-0.7-3.9-1.8l1.4-1.4c0.7,0.9,1.6,1.3,2.6,1.3c1,0,1.6-0.4,1.6-1
				c0-0.5-0.4-0.8-1.3-1L217.8,69.5z"/>
			<path class="st1" d="M227.1,73.4v-9.3h2v9.3H227.1z"/>
			<path class="st1" d="M239,70v-1.8h3.8v3.7c-0.9,0.9-2.3,1.6-3.9,1.6c-1.4,0-2.5-0.5-3.5-1.3c-0.9-0.9-1.4-2-1.4-3.4
				c0-1.4,0.5-2.6,1.4-3.5c0.9-0.9,2.1-1.3,3.5-1.3c1.5,0,2.8,0.6,3.7,1.8l-1.3,1.4c-0.5-0.8-1.4-1.3-2.5-1.3
				c-0.7,0-1.4,0.3-1.9,0.8c-0.5,0.5-0.8,1.2-0.8,2.1c0,0.9,0.3,1.6,0.8,2.2c0.5,0.5,1.2,0.8,2,0.8c0.8,0,1.4-0.2,1.9-0.6V70H239z"
				/>
			<path class="st1" d="M253.6,73.4l-3.8-6.3v6.3h-2v-9.3h2.4l3.8,6.3v-6.3h2v9.3H253.6z"/>
			<path class="st1" d="M268.8,71.5c0.4-0.4,1.2-0.4,1.6,0c0.5,0.4,0.5,1.2,0,1.6c-0.4,0.4-1.2,0.4-1.6,0
				C268.4,72.7,268.4,72,268.8,71.5z"/>
			<path class="st1" d="M283.4,73.4v-9.3h4.2c1.9,0,3.2,0.9,3.2,2.6c0,0.8-0.3,1.4-1,1.9c0.8,0.6,1.2,1.3,1.2,2.1
				c0,0.8-0.3,1.5-0.9,2c-0.6,0.5-1.4,0.7-2.3,0.7H283.4z M285.3,65.9v1.9h1.9c1,0,1.5-0.3,1.5-1c0-0.7-0.5-1-1.6-1H285.3z
				 M285.3,71.5h2c1.1,0,1.7-0.3,1.7-1.1c0-0.7-0.5-1-1.6-1h-2V71.5z"/>
			<path class="st1" d="M301.5,64.1h2v5.2c0,2.8-1.5,4.3-3.9,4.3s-3.9-1.5-3.9-4.3v-5.2h2v5.3c0,1.4,0.7,2.4,1.9,2.4
				c1.3,0,1.9-0.8,1.9-2.4V64.1z"/>
			<path class="st1" d="M308.6,73.4v-9.3h2v9.3H308.6z"/>
			<path class="st1" d="M316,73.4v-9.3h2v7.5h4.2v1.8H316z"/>
			<path class="st1" d="M327,73.4v-9.3h3.1c1.3,0,2.5,0.3,3.5,1c1,0.7,1.7,2,1.7,3.6c0,1.6-0.6,2.9-1.7,3.6c-1,0.7-2.2,1.1-3.5,1.1
				H327z M329,65.9v5.7h0.8c2.3,0,3.5-1,3.5-2.9c0-1.8-1.2-2.8-3.5-2.8H329z"/>
			<path class="st1" d="M347.7,71.5c0.4-0.4,1.2-0.4,1.6,0c0.5,0.4,0.5,1.2,0,1.6c-0.4,0.4-1.2,0.4-1.6,0
				C347.3,72.7,347.3,72,347.7,71.5z"/>
			<path class="st1" d="M362.2,73.4v-9.3h2v7.5h4.2v1.8H362.2z"/>
			<path class="st1" d="M373.3,73.4v-9.3h2v9.3H373.3z"/>
			<path class="st1" d="M383.9,70.8l2.2-6.7h2l-3.2,9.3h-2l-3.2-9.3h2L383.9,70.8z"/>
			<path class="st1" d="M392.6,73.4v-9.3h6.9v1.8h-4.9v1.8h4.7v1.8h-4.7v2h4.9v1.8H392.6z"/>
		</g>
	</g>
</g>
</svg>
